<svg width="309" height="331" viewBox="0 0 309 331" fill="none" xmlns="http://www.w3.org/2000/svg">
<g filter="url(#filter0_d_62_24)">
<path d="M97.125 59.0833C91.9185 59.0855 87.4564 62.8059 86.5179 67.9271C90.9995 65.4747 96.6205 67.1197 99.0729 71.6012C100.587 74.3679 100.587 77.7153 99.0729 80.482C104.933 79.4085 108.814 73.7875 107.74 67.9272C106.801 62.8028 102.335 59.0813 97.125 59.0833Z" fill="#FCE0EF"/>
<path d="M84.7917 89.9167C89.0489 89.9167 92.5 86.4655 92.5 82.2083C92.5 77.9511 89.0489 74.5 84.7917 74.5C80.5345 74.5 77.0834 77.9511 77.0834 82.2083C77.0834 86.4655 80.5345 89.9167 84.7917 89.9167Z" fill="#ED017F"/>
<path d="M90.9584 66.7917C86.2048 66.7922 82.2254 70.3955 81.7546 75.1257C85.664 73.446 90.1948 75.2536 91.8744 79.1629C92.7087 81.1046 92.7087 83.3037 91.8744 85.2454C96.9577 84.74 100.669 80.2094 100.163 75.1261C99.693 70.3951 95.7127 66.7913 90.9584 66.7917Z" fill="#F899CC"/>
<path d="M75.54 128H78.796V112.886H75.54V128ZM88.3024 116.362C86.8284 116.362 85.5524 117.022 84.8704 118.056V116.626H81.6584V128H84.8704V121.202L84.8924 121.268C84.8924 120.036 85.9264 119.068 87.2684 119.068C88.5444 119.068 89.4244 120.036 89.4244 121.444V128H92.5264V120.762C92.5264 118.188 90.7664 116.362 88.3024 116.362ZM101.222 125.184C101.002 125.404 100.562 125.558 100.122 125.558C99.5281 125.558 99.0441 125.03 99.0441 124.282V119.222H101.508V116.626H99.0441V113.502H95.9641V116.626H94.4021V119.222H95.9641V124.788C95.9641 126.834 97.3721 128.264 99.3741 128.264C100.298 128.264 101.332 127.868 101.992 127.274L101.222 125.184ZM109.372 125.426C108.03 125.426 107.04 124.59 106.666 123.358H114.872C114.872 119.068 112.782 116.362 109.218 116.362C105.896 116.362 103.366 118.848 103.366 122.28C103.366 125.778 106.006 128.264 109.394 128.264C111.066 128.264 113.024 127.56 114.036 126.504L111.99 124.414C111.374 125.008 110.274 125.426 109.372 125.426ZM109.35 119.2C110.648 119.2 111.484 119.926 111.792 121.048H106.71C107.128 119.904 108.14 119.2 109.35 119.2ZM125.273 116.626V118.166C124.503 117.088 123.051 116.362 121.511 116.362C118.651 116.362 116.473 118.584 116.473 121.752C116.473 124.92 118.651 127.164 121.511 127.164C123.007 127.164 124.371 126.504 125.273 125.404V126.658C125.273 128.132 123.953 129.078 121.885 129.078C120.565 129.078 119.245 128.66 118.497 128L117.375 130.266C118.497 131.146 120.389 131.784 122.391 131.784C125.977 131.784 128.507 129.716 128.507 126.79V116.626H125.273ZM122.523 124.458C120.917 124.458 119.773 123.336 119.773 121.752C119.773 120.168 120.917 119.068 122.523 119.068C124.129 119.068 125.273 120.168 125.273 121.752C125.273 123.336 124.129 124.458 122.523 124.458ZM134.544 118.738V116.626H131.332V128H134.544V122.566C134.544 120.432 136.062 119.068 138.438 119.068V116.362C136.7 116.362 135.292 117.264 134.544 118.738ZM141.897 115.064C142.843 115.064 143.613 114.272 143.613 113.304C143.613 112.402 142.843 111.588 141.897 111.588C140.907 111.588 140.137 112.402 140.137 113.304C140.137 114.272 140.907 115.064 141.897 115.064ZM140.269 128H143.481V116.626H140.269V128ZM152.269 125.184C152.049 125.404 151.609 125.558 151.169 125.558C150.575 125.558 150.091 125.03 150.091 124.282V119.222H152.555V116.626H150.091V113.502H147.011V116.626H145.449V119.222H147.011V124.788C147.011 126.834 148.419 128.264 150.421 128.264C151.345 128.264 152.379 127.868 153.039 127.274L152.269 125.184ZM157.647 131.96C159.429 131.96 160.881 130.794 161.739 128.572L166.403 116.626H163.125L160.287 124.612L157.295 116.626H153.973L158.703 128.11L158.307 128.946C158.065 129.364 157.581 129.562 156.965 129.562C156.591 129.562 156.019 129.364 155.469 129.056L154.787 131.256C155.557 131.674 156.701 131.96 157.647 131.96Z" fill="#363940"/>
<path d="M75.218 159H78.536C81.644 159 83.856 156.998 83.856 154.184C83.856 151.37 81.644 149.382 78.536 149.382H75.218V159ZM76.632 157.712V150.67H78.62C80.846 150.67 82.4 152.126 82.4 154.184C82.4 156.256 80.846 157.712 78.62 157.712H76.632ZM86.3581 150.558C86.8061 150.558 87.1841 150.166 87.1841 149.718C87.1841 149.284 86.8061 148.892 86.3581 148.892C85.8821 148.892 85.5181 149.284 85.5181 149.718C85.5181 150.166 85.8821 150.558 86.3581 150.558ZM85.6581 159H87.0441V151.762H85.6581V159ZM91.667 159.168C93.249 159.168 94.411 158.3 94.411 156.928C94.411 155.486 93.137 155.094 91.947 154.744C90.729 154.366 90.281 154.198 90.281 153.638C90.281 153.092 90.841 152.784 91.555 152.784C92.185 152.784 92.913 153.022 93.613 153.456L94.229 152.434C93.445 151.916 92.493 151.594 91.555 151.594C90.015 151.594 88.909 152.462 88.923 153.792C88.923 154.968 89.749 155.444 91.415 155.906C92.311 156.158 93.053 156.368 93.053 157.04C93.053 157.6 92.493 157.978 91.681 157.978C90.827 157.978 90.001 157.656 89.231 157.096L88.573 158.09C89.441 158.79 90.603 159.168 91.667 159.168ZM100.04 151.594C98.9197 151.594 98.0237 152.126 97.4637 153.008V151.762H96.0917V161.408H97.4637V157.74C98.0237 158.636 98.9197 159.168 100.04 159.168C101.944 159.168 103.372 157.6 103.372 155.374C103.372 153.162 101.944 151.594 100.04 151.594ZM99.7037 157.964C98.4017 157.964 97.4637 156.886 97.4637 155.374C97.4637 153.862 98.4017 152.798 99.7037 152.798C101.034 152.798 101.972 153.862 101.972 155.374C101.972 156.886 101.034 157.964 99.7037 157.964ZM105.045 159H106.417V149.214H105.045V159ZM111.474 151.594C110.676 151.594 109.766 151.804 108.73 152.322L109.234 153.344C109.864 153.022 110.564 152.742 111.278 152.742C112.72 152.742 113.14 153.708 113.14 154.618V154.842C112.44 154.604 111.67 154.45 110.956 154.45C109.36 154.45 108.058 155.416 108.058 156.858C108.058 158.272 109.192 159.168 110.732 159.168C111.614 159.168 112.608 158.762 113.14 158.006V159H114.498V154.618C114.498 152.826 113.42 151.594 111.474 151.594ZM110.998 158.076C110.088 158.076 109.388 157.6 109.388 156.816C109.388 156.032 110.2 155.486 111.166 155.486C111.88 155.486 112.552 155.584 113.14 155.766V156.732C112.902 157.628 111.894 158.076 110.998 158.076ZM117.776 161.52C118.812 161.506 119.582 160.96 120.1 159.658L123.292 151.762H121.85L119.652 157.474L117.328 151.762H115.844L118.952 159.042L118.588 159.812C118.35 160.232 118.042 160.372 117.594 160.372C117.314 160.372 116.992 160.302 116.712 160.148L116.404 161.212C116.782 161.408 117.286 161.52 117.776 161.52ZM125.528 150.558C125.976 150.558 126.354 150.166 126.354 149.718C126.354 149.284 125.976 148.892 125.528 148.892C125.052 148.892 124.688 149.284 124.688 149.718C124.688 150.166 125.052 150.558 125.528 150.558ZM124.828 159H126.214V151.762H124.828V159ZM131.901 151.594C130.921 151.594 130.039 152.098 129.605 152.812V151.762H128.219V159H129.605V154.31C129.717 153.456 130.585 152.798 131.593 152.798C132.573 152.798 133.259 153.554 133.259 154.632V159H134.617V154.394C134.617 152.756 133.497 151.594 131.901 151.594ZM142.102 151.762V152.924C141.556 152.112 140.632 151.594 139.54 151.594C137.636 151.594 136.25 153.008 136.25 155.024C136.25 157.04 137.636 158.468 139.54 158.468C140.632 158.468 141.528 157.978 142.102 157.152V158.202C142.102 159.462 141.164 160.204 139.61 160.204C138.742 160.204 137.874 159.91 137.342 159.406L136.796 160.442C137.482 161.002 138.602 161.408 139.82 161.408C141.962 161.408 143.488 160.092 143.488 158.23V151.762H142.102ZM139.89 157.264C138.602 157.264 137.692 156.34 137.692 155.024C137.692 153.722 138.602 152.798 139.89 152.798C141.178 152.798 142.102 153.722 142.102 155.024C142.102 156.34 141.178 157.264 139.89 157.264ZM152.949 157.698C152.795 157.852 152.515 157.964 152.207 157.964C151.801 157.964 151.465 157.6 151.465 157.096V152.938H153.173V151.762H151.465V149.774H150.107V151.762H149.015V152.938H150.107V157.194C150.107 158.356 150.891 159.168 152.011 159.168C152.529 159.168 153.061 158.972 153.453 158.65L152.949 157.698ZM158.547 151.594C157.553 151.594 156.671 152.112 156.237 152.84V149.214H154.865V159H156.237V154.506C156.237 153.568 157.147 152.798 158.239 152.798C159.219 152.798 159.905 153.554 159.905 154.632V159H161.263V154.394C161.263 152.756 160.143 151.594 158.547 151.594ZM166.564 157.936C165.318 157.936 164.436 157.068 164.254 155.864H169.952C169.952 153.274 168.678 151.594 166.466 151.594C164.464 151.594 162.854 153.19 162.854 155.36C162.854 157.586 164.562 159.168 166.578 159.168C167.6 159.168 168.86 158.734 169.504 158.048L168.636 157.152C168.202 157.6 167.32 157.936 166.564 157.936ZM166.522 152.826C167.768 152.826 168.454 153.638 168.608 154.758H164.268C164.492 153.582 165.402 152.826 166.522 152.826ZM179.247 151.594C178.253 151.594 177.371 152.112 176.937 152.84V149.214H175.565V159H176.937V154.506C176.937 153.568 177.847 152.798 178.939 152.798C179.919 152.798 180.605 153.554 180.605 154.632V159H181.963V154.394C181.963 152.756 180.843 151.594 179.247 151.594ZM184.632 150.558C185.08 150.558 185.458 150.166 185.458 149.718C185.458 149.284 185.08 148.892 184.632 148.892C184.156 148.892 183.792 149.284 183.792 149.718C183.792 150.166 184.156 150.558 184.632 150.558ZM183.932 159H185.318V151.762H183.932V159ZM192.824 151.762V152.924C192.278 152.112 191.354 151.594 190.262 151.594C188.358 151.594 186.972 153.008 186.972 155.024C186.972 157.04 188.358 158.468 190.262 158.468C191.354 158.468 192.25 157.978 192.824 157.152V158.202C192.824 159.462 191.886 160.204 190.332 160.204C189.464 160.204 188.596 159.91 188.064 159.406L187.518 160.442C188.204 161.002 189.324 161.408 190.542 161.408C192.684 161.408 194.21 160.092 194.21 158.23V151.762H192.824ZM190.612 157.264C189.324 157.264 188.414 156.34 188.414 155.024C188.414 153.722 189.324 152.798 190.612 152.798C191.9 152.798 192.824 153.722 192.824 155.024C192.824 156.34 191.9 157.264 190.612 157.264ZM199.96 151.594C198.966 151.594 198.084 152.112 197.65 152.84V149.214H196.278V159H197.65V154.506C197.65 153.568 198.56 152.798 199.652 152.798C200.632 152.798 201.318 153.554 201.318 154.632V159H202.676V154.394C202.676 152.756 201.556 151.594 199.96 151.594ZM207.976 157.936C206.73 157.936 205.848 157.068 205.666 155.864H211.364C211.364 153.274 210.09 151.594 207.878 151.594C205.876 151.594 204.266 153.19 204.266 155.36C204.266 157.586 205.974 159.168 207.99 159.168C209.012 159.168 210.272 158.734 210.916 158.048L210.048 157.152C209.614 157.6 208.732 157.936 207.976 157.936ZM207.934 152.826C209.18 152.826 209.866 153.638 210.02 154.758H205.68C205.904 153.582 206.814 152.826 207.934 152.826ZM215.589 159.168C217.171 159.168 218.333 158.3 218.333 156.928C218.333 155.486 217.059 155.094 215.869 154.744C214.651 154.366 214.203 154.198 214.203 153.638C214.203 153.092 214.763 152.784 215.477 152.784C216.107 152.784 216.835 153.022 217.535 153.456L218.151 152.434C217.367 151.916 216.415 151.594 215.477 151.594C213.937 151.594 212.831 152.462 212.845 153.792C212.845 154.968 213.671 155.444 215.337 155.906C216.233 156.158 216.975 156.368 216.975 157.04C216.975 157.6 216.415 157.978 215.603 157.978C214.749 157.978 213.923 157.656 213.153 157.096L212.495 158.09C213.363 158.79 214.525 159.168 215.589 159.168ZM223.332 157.698C223.178 157.852 222.898 157.964 222.59 157.964C222.184 157.964 221.848 157.6 221.848 157.096V152.938H223.556V151.762H221.848V149.774H220.49V151.762H219.398V152.938H220.49V157.194C220.49 158.356 221.274 159.168 222.394 159.168C222.912 159.168 223.444 158.972 223.836 158.65L223.332 157.698ZM75.008 183H76.38V173.214H75.008V183ZM81.7166 181.936C80.4706 181.936 79.5886 181.068 79.4066 179.864H85.1046C85.1046 177.274 83.8306 175.594 81.6186 175.594C79.6166 175.594 78.0066 177.19 78.0066 179.36C78.0066 181.586 79.7146 183.168 81.7306 183.168C82.7526 183.168 84.0126 182.734 84.6566 182.048L83.7886 181.152C83.3546 181.6 82.4726 181.936 81.7166 181.936ZM81.6746 176.826C82.9206 176.826 83.6066 177.638 83.7606 178.758H79.4206C79.6446 177.582 80.5546 176.826 81.6746 176.826ZM89.1191 183H90.4211L93.4731 175.762H91.9751L89.7631 181.39L87.5091 175.762H86.0111L89.1191 183ZM97.6307 181.936C96.3847 181.936 95.5027 181.068 95.3207 179.864H101.019C101.019 177.274 99.7447 175.594 97.5327 175.594C95.5307 175.594 93.9207 177.19 93.9207 179.36C93.9207 181.586 95.6287 183.168 97.6447 183.168C98.6667 183.168 99.9267 182.734 100.571 182.048L99.7027 181.152C99.2687 181.6 98.3867 181.936 97.6307 181.936ZM97.5887 176.826C98.8347 176.826 99.5207 177.638 99.6747 178.758H95.3347C95.5587 177.582 96.4687 176.826 97.5887 176.826ZM102.625 183H103.997V173.214H102.625V183ZM113.452 183.168C115.51 183.168 117.246 181.432 117.246 179.374C117.246 177.316 115.51 175.594 113.452 175.594C111.38 175.594 109.63 177.316 109.63 179.374C109.63 181.432 111.38 183.168 113.452 183.168ZM113.452 181.964C112.122 181.964 111.016 180.788 111.016 179.374C111.016 177.974 112.122 176.798 113.452 176.798C114.754 176.798 115.86 177.974 115.86 179.374C115.86 180.788 114.754 181.964 113.452 181.964ZM120.771 174.964C120.771 174.46 121.107 174.096 121.513 174.096C121.821 174.096 122.101 174.208 122.255 174.362L122.759 173.438C122.367 173.116 121.835 172.92 121.317 172.92C120.197 172.92 119.413 173.732 119.413 174.894V175.762H118.321V176.938H119.413V183H120.771V176.938H122.479V175.762H120.771V174.964ZM127.974 183H129.388V173.382H127.974V183ZM135.141 175.594C134.161 175.594 133.279 176.098 132.845 176.812V175.762H131.459V183H132.845V178.31C132.957 177.456 133.825 176.798 134.833 176.798C135.813 176.798 136.499 177.554 136.499 178.632V183H137.857V178.394C137.857 176.756 136.737 175.594 135.141 175.594ZM143.228 181.698C143.074 181.852 142.794 181.964 142.486 181.964C142.08 181.964 141.744 181.6 141.744 181.096V176.938H143.452V175.762H141.744V173.774H140.386V175.762H139.294V176.938H140.386V181.194C140.386 182.356 141.17 183.168 142.29 183.168C142.808 183.168 143.34 182.972 143.732 182.65L143.228 181.698ZM148.463 181.936C147.217 181.936 146.335 181.068 146.153 179.864H151.851C151.851 177.274 150.577 175.594 148.365 175.594C146.363 175.594 144.753 177.19 144.753 179.36C144.753 181.586 146.461 183.168 148.477 183.168C149.499 183.168 150.759 182.734 151.403 182.048L150.535 181.152C150.101 181.6 149.219 181.936 148.463 181.936ZM148.421 176.826C149.667 176.826 150.353 177.638 150.507 178.758H146.167C146.391 177.582 147.301 176.826 148.421 176.826ZM158.959 175.762V176.924C158.413 176.112 157.489 175.594 156.397 175.594C154.493 175.594 153.107 177.008 153.107 179.024C153.107 181.04 154.493 182.468 156.397 182.468C157.489 182.468 158.385 181.978 158.959 181.152V182.202C158.959 183.462 158.021 184.204 156.467 184.204C155.599 184.204 154.731 183.91 154.199 183.406L153.653 184.442C154.339 185.002 155.459 185.408 156.677 185.408C158.819 185.408 160.345 184.092 160.345 182.23V175.762H158.959ZM156.747 181.264C155.459 181.264 154.549 180.34 154.549 179.024C154.549 177.722 155.459 176.798 156.747 176.798C158.035 176.798 158.959 177.722 158.959 179.024C158.959 180.34 158.035 181.264 156.747 181.264ZM163.868 177.148V175.762H162.482V183H163.868V178.884C163.994 177.624 165.058 176.798 166.556 176.798V175.594C165.31 175.594 164.33 176.196 163.868 177.148ZM168.594 174.558C169.042 174.558 169.42 174.166 169.42 173.718C169.42 173.284 169.042 172.892 168.594 172.892C168.118 172.892 167.754 173.284 167.754 173.718C167.754 174.166 168.118 174.558 168.594 174.558ZM167.894 183H169.28V175.762H167.894V183ZM174.673 181.698C174.519 181.852 174.239 181.964 173.931 181.964C173.525 181.964 173.189 181.6 173.189 181.096V176.938H174.897V175.762H173.189V173.774H171.831V175.762H170.739V176.938H171.831V181.194C171.831 182.356 172.615 183.168 173.735 183.168C174.253 183.168 174.785 182.972 175.177 182.65L174.673 181.698ZM177.864 185.52C178.9 185.506 179.67 184.96 180.188 183.658L183.38 175.762H181.938L179.74 181.474L177.416 175.762H175.932L179.04 183.042L178.676 183.812C178.438 184.232 178.13 184.372 177.682 184.372C177.402 184.372 177.08 184.302 176.8 184.148L176.492 185.212C176.87 185.408 177.374 185.52 177.864 185.52ZM189.622 174.558C190.07 174.558 190.448 174.166 190.448 173.718C190.448 173.284 190.07 172.892 189.622 172.892C189.146 172.892 188.782 173.284 188.782 173.718C188.782 174.166 189.146 174.558 189.622 174.558ZM188.922 183H190.308V175.762H188.922V183ZM195.995 175.594C195.015 175.594 194.133 176.098 193.699 176.812V175.762H192.313V183H193.699V178.31C193.811 177.456 194.679 176.798 195.687 176.798C196.667 176.798 197.353 177.554 197.353 178.632V183H198.711V178.394C198.711 176.756 197.591 175.594 195.995 175.594ZM208.087 181.698C207.933 181.852 207.653 181.964 207.345 181.964C206.939 181.964 206.603 181.6 206.603 181.096V176.938H208.311V175.762H206.603V173.774H205.245V175.762H204.153V176.938H205.245V181.194C205.245 182.356 206.029 183.168 207.149 183.168C207.667 183.168 208.199 182.972 208.591 182.65L208.087 181.698ZM213.686 175.594C212.692 175.594 211.81 176.112 211.376 176.84V173.214H210.004V183H211.376V178.506C211.376 177.568 212.286 176.798 213.378 176.798C214.358 176.798 215.044 177.554 215.044 178.632V183H216.402V178.394C216.402 176.756 215.282 175.594 213.686 175.594ZM221.703 181.936C220.457 181.936 219.575 181.068 219.393 179.864H225.091C225.091 177.274 223.817 175.594 221.605 175.594C219.603 175.594 217.993 177.19 217.993 179.36C217.993 181.586 219.701 183.168 221.717 183.168C222.739 183.168 223.999 182.734 224.643 182.048L223.775 181.152C223.341 181.6 222.459 181.936 221.703 181.936ZM221.661 176.826C222.907 176.826 223.593 177.638 223.747 178.758H219.407C219.631 177.582 220.541 176.826 221.661 176.826ZM76.842 207H78.116L79.866 201.624L81.602 207H82.876L85.312 199.762H83.898L82.246 205.152L80.454 199.762H79.278L77.486 205.152L75.82 199.762H74.406L76.842 207ZM89.7491 199.594C88.9511 199.594 88.0411 199.804 87.0051 200.322L87.5091 201.344C88.1391 201.022 88.8391 200.742 89.5531 200.742C90.9951 200.742 91.4151 201.708 91.4151 202.618V202.842C90.7151 202.604 89.9451 202.45 89.2311 202.45C87.6351 202.45 86.3331 203.416 86.3331 204.858C86.3331 206.272 87.4671 207.168 89.0071 207.168C89.8891 207.168 90.8831 206.762 91.4151 206.006V207H92.7731V202.618C92.7731 200.826 91.6951 199.594 89.7491 199.594ZM89.2731 206.076C88.3631 206.076 87.6631 205.6 87.6631 204.816C87.6631 204.032 88.4751 203.486 89.4411 203.486C90.1551 203.486 90.8271 203.584 91.4151 203.766V204.732C91.1771 205.628 90.1691 206.076 89.2731 206.076ZM96.0515 209.52C97.0875 209.506 97.8575 208.96 98.3755 207.658L101.568 199.762H100.126L97.9275 205.474L95.6035 199.762H94.1195L97.2275 207.042L96.8635 207.812C96.6255 208.232 96.3175 208.372 95.8695 208.372C95.5895 208.372 95.2675 208.302 94.9875 208.148L94.6795 209.212C95.0575 209.408 95.5615 209.52 96.0515 209.52ZM108.957 207H110.231L111.981 201.624L113.717 207H114.991L117.427 199.762H116.013L114.361 205.152L112.569 199.762H111.393L109.601 205.152L107.935 199.762H106.521L108.957 207ZM121.789 205.936C120.543 205.936 119.661 205.068 119.479 203.864H125.177C125.177 201.274 123.903 199.594 121.691 199.594C119.689 199.594 118.079 201.19 118.079 203.36C118.079 205.586 119.787 207.168 121.803 207.168C122.825 207.168 124.085 206.734 124.729 206.048L123.861 205.152C123.427 205.6 122.545 205.936 121.789 205.936ZM121.747 200.826C122.993 200.826 123.679 201.638 123.833 202.758H119.493C119.717 201.582 120.627 200.826 121.747 200.826ZM134.205 207.168C135.283 207.168 136.221 206.72 136.921 206.006L135.983 205.152C135.535 205.656 134.891 205.964 134.219 205.964C132.889 205.964 131.797 204.788 131.797 203.374C131.797 201.974 132.889 200.798 134.205 200.798C134.877 200.798 135.507 201.092 135.941 201.582L136.879 200.714C136.193 200.028 135.255 199.594 134.219 199.594C132.147 199.594 130.397 201.316 130.397 203.374C130.397 205.432 132.147 207.168 134.205 207.168ZM141.684 207.168C143.742 207.168 145.478 205.432 145.478 203.374C145.478 201.316 143.742 199.594 141.684 199.594C139.612 199.594 137.862 201.316 137.862 203.374C137.862 205.432 139.612 207.168 141.684 207.168ZM141.684 205.964C140.354 205.964 139.248 204.788 139.248 203.374C139.248 201.974 140.354 200.798 141.684 200.798C142.986 200.798 144.092 201.974 144.092 203.374C144.092 204.788 142.986 205.964 141.684 205.964ZM150.782 199.594C149.802 199.594 148.92 200.098 148.486 200.812V199.762H147.1V207H148.486V202.31C148.598 201.456 149.466 200.798 150.474 200.798C151.454 200.798 152.14 201.554 152.14 202.632V207H153.498V202.394C153.498 200.756 152.378 199.594 150.782 199.594ZM161.053 197.214V201.008C160.493 200.126 159.597 199.594 158.477 199.594C156.573 199.594 155.145 201.162 155.145 203.374C155.145 205.6 156.573 207.168 158.477 207.168C159.597 207.168 160.493 206.636 161.053 205.74V207H162.425V197.214H161.053ZM158.813 205.964C157.483 205.964 156.545 204.886 156.545 203.374C156.545 201.862 157.483 200.798 158.813 200.798C160.115 200.798 161.053 201.862 161.053 203.374C161.053 204.886 160.115 205.964 158.813 205.964ZM169.488 199.762V204.452C169.376 205.306 168.508 205.964 167.5 205.964C166.52 205.964 165.834 205.208 165.834 204.13V199.762H164.476V204.368C164.476 206.006 165.596 207.168 167.192 207.168C168.172 207.168 169.054 206.664 169.488 205.95V207H170.874V199.762H169.488ZM176.301 207.168C177.379 207.168 178.317 206.72 179.017 206.006L178.079 205.152C177.631 205.656 176.987 205.964 176.315 205.964C174.985 205.964 173.893 204.788 173.893 203.374C173.893 201.974 174.985 200.798 176.301 200.798C176.973 200.798 177.603 201.092 178.037 201.582L178.975 200.714C178.289 200.028 177.351 199.594 176.315 199.594C174.243 199.594 172.493 201.316 172.493 203.374C172.493 205.432 174.243 207.168 176.301 207.168ZM183.888 205.698C183.734 205.852 183.454 205.964 183.146 205.964C182.74 205.964 182.404 205.6 182.404 205.096V200.938H184.112V199.762H182.404V197.774H181.046V199.762H179.954V200.938H181.046V205.194C181.046 206.356 181.83 207.168 182.95 207.168C183.468 207.168 184 206.972 184.392 206.65L183.888 205.698ZM193.241 207.168C195.299 207.168 197.035 205.432 197.035 203.374C197.035 201.316 195.299 199.594 193.241 199.594C191.169 199.594 189.419 201.316 189.419 203.374C189.419 205.432 191.169 207.168 193.241 207.168ZM193.241 205.964C191.911 205.964 190.805 204.788 190.805 203.374C190.805 201.974 191.911 200.798 193.241 200.798C194.543 200.798 195.649 201.974 195.649 203.374C195.649 204.788 194.543 205.964 193.241 205.964ZM203.64 199.762V204.452C203.528 205.306 202.66 205.964 201.652 205.964C200.672 205.964 199.986 205.208 199.986 204.13V199.762H198.628V204.368C198.628 206.006 199.748 207.168 201.344 207.168C202.324 207.168 203.206 206.664 203.64 205.95V207H205.026V199.762H203.64ZM208.493 201.148V199.762H207.107V207H208.493V202.884C208.619 201.624 209.683 200.798 211.181 200.798V199.594C209.935 199.594 208.955 200.196 208.493 201.148ZM79.026 223.594C77.906 223.594 77.01 224.126 76.45 225.008V221.214H75.078V231H76.45V229.74C77.01 230.636 77.906 231.168 79.026 231.168C80.93 231.168 82.358 229.6 82.358 227.374C82.358 225.162 80.93 223.594 79.026 223.594ZM78.69 229.964C77.388 229.964 76.45 228.886 76.45 227.374C76.45 225.862 77.388 224.798 78.69 224.798C80.02 224.798 80.958 225.862 80.958 227.374C80.958 228.886 80.02 229.964 78.69 229.964ZM89.0154 223.762V228.452C88.9034 229.306 88.0354 229.964 87.0274 229.964C86.0474 229.964 85.3614 229.208 85.3614 228.13V223.762H84.0034V228.368C84.0034 230.006 85.1234 231.168 86.7194 231.168C87.6994 231.168 88.5814 230.664 89.0154 229.95V231H90.4014V223.762H89.0154ZM95.0303 231.168C96.6123 231.168 97.7743 230.3 97.7743 228.928C97.7743 227.486 96.5003 227.094 95.3103 226.744C94.0923 226.366 93.6443 226.198 93.6443 225.638C93.6443 225.092 94.2043 224.784 94.9183 224.784C95.5483 224.784 96.2763 225.022 96.9763 225.456L97.5923 224.434C96.8083 223.916 95.8563 223.594 94.9183 223.594C93.3783 223.594 92.2723 224.462 92.2863 225.792C92.2863 226.968 93.1123 227.444 94.7783 227.906C95.6743 228.158 96.4163 228.368 96.4163 229.04C96.4163 229.6 95.8563 229.978 95.0443 229.978C94.1903 229.978 93.3643 229.656 92.5943 229.096L91.9363 230.09C92.8043 230.79 93.9663 231.168 95.0303 231.168ZM100.071 222.558C100.519 222.558 100.897 222.166 100.897 221.718C100.897 221.284 100.519 220.892 100.071 220.892C99.595 220.892 99.231 221.284 99.231 221.718C99.231 222.166 99.595 222.558 100.071 222.558ZM99.371 231H100.757V223.762H99.371V231ZM106.444 223.594C105.464 223.594 104.582 224.098 104.148 224.812V223.762H102.762V231H104.148V226.31C104.26 225.456 105.128 224.798 106.136 224.798C107.116 224.798 107.802 225.554 107.802 226.632V231H109.16V226.394C109.16 224.756 108.04 223.594 106.444 223.594ZM114.461 229.936C113.215 229.936 112.333 229.068 112.151 227.864H117.849C117.849 225.274 116.575 223.594 114.363 223.594C112.361 223.594 110.751 225.19 110.751 227.36C110.751 229.586 112.459 231.168 114.475 231.168C115.497 231.168 116.757 230.734 117.401 230.048L116.533 229.152C116.099 229.6 115.217 229.936 114.461 229.936ZM114.419 224.826C115.665 224.826 116.351 225.638 116.505 226.758H112.165C112.389 225.582 113.299 224.826 114.419 224.826ZM122.073 231.168C123.655 231.168 124.817 230.3 124.817 228.928C124.817 227.486 123.543 227.094 122.353 226.744C121.135 226.366 120.687 226.198 120.687 225.638C120.687 225.092 121.247 224.784 121.961 224.784C122.591 224.784 123.319 225.022 124.019 225.456L124.635 224.434C123.851 223.916 122.899 223.594 121.961 223.594C120.421 223.594 119.315 224.462 119.329 225.792C119.329 226.968 120.155 227.444 121.821 227.906C122.717 228.158 123.459 228.368 123.459 229.04C123.459 229.6 122.899 229.978 122.087 229.978C121.233 229.978 120.407 229.656 119.637 229.096L118.979 230.09C119.847 230.79 121.009 231.168 122.073 231.168ZM129.046 231.168C130.628 231.168 131.79 230.3 131.79 228.928C131.79 227.486 130.516 227.094 129.326 226.744C128.108 226.366 127.66 226.198 127.66 225.638C127.66 225.092 128.22 224.784 128.934 224.784C129.564 224.784 130.292 225.022 130.992 225.456L131.608 224.434C130.824 223.916 129.872 223.594 128.934 223.594C127.394 223.594 126.288 224.462 126.302 225.792C126.302 226.968 127.128 227.444 128.794 227.906C129.69 228.158 130.432 228.368 130.432 229.04C130.432 229.6 129.872 229.978 129.06 229.978C128.206 229.978 127.38 229.656 126.61 229.096L125.952 230.09C126.82 230.79 127.982 231.168 129.046 231.168Z" fill="#999999"/>
</g>
<defs>
<filter id="filter0_d_62_24" x="-24" y="-24" width="407" height="379" filterUnits="userSpaceOnUse" color-interpolation-filters="sRGB">
<feFlood flood-opacity="0" result="BackgroundImageFix"/>
<feColorMatrix in="SourceAlpha" type="matrix" values="0 0 0 0 0 0 0 0 0 0 0 0 0 0 0 0 0 0 127 0" result="hardAlpha"/>
<feMorphology radius="16" operator="dilate" in="SourceAlpha" result="effect1_dropShadow_62_24"/>
<feOffset dy="18"/>
<feGaussianBlur stdDeviation="29"/>
<feColorMatrix type="matrix" values="0 0 0 0 0 0 0 0 0 0 0 0 0 0 0 0 0 0 0.06 0"/>
<feBlend mode="normal" in2="BackgroundImageFix" result="effect1_dropShadow_62_24"/>
<feBlend mode="normal" in="SourceGraphic" in2="effect1_dropShadow_62_24" result="shape"/>
</filter>
</defs>
</svg>
